<?xml version="1.0" encoding="UTF-8"?>
<svg width="213px" height="216px" viewBox="0 0 213 216" version="1.1" xmlns="http://www.w3.org/2000/svg" xmlns:xlink="http://www.w3.org/1999/xlink">
	<!-- Generator: Sketch 48.1 (47250) - http://www.bohemiancoding.com/sketch -->
	<title>illustration</title>
	<desc>Created with Sketch.</desc>
	<defs>
		<rect id="path-1" x="0" y="0" width="118" height="176"></rect>
		<radialGradient cx="100%" cy="-25.2981086%" fx="100%" fy="-25.2981086%" r="206.304507%" id="radialGradient-3">
			<stop stop-color="#BECFE9" offset="0%"></stop>
			<stop stop-color="#ECF0F6" stop-opacity="0" offset="100%"></stop>
		</radialGradient>
		<linearGradient x1="0%" y1="29.1961109%" x2="100%" y2="29.1961104%" id="linearGradient-4">
			<stop stop-color="#E2E8F1" offset="0%"></stop>
			<stop stop-color="#D7DFEB" offset="100%"></stop>
		</linearGradient>
		<radialGradient cx="45.4747081%" cy="-64.9807698%" fx="45.4747081%" fy="-64.9807698%" r="164.98077%" gradientTransform="translate(0.454747,-0.649808),scale(0.286191,1.000000),rotate(90.000000),scale(1.000000,1.661916),translate(-0.454747,0.649808)" id="radialGradient-5">
			<stop stop-color="#BECFE9" offset="0%"></stop>
			<stop stop-color="#ECF2F6" stop-opacity="0" offset="100%"></stop>
		</radialGradient>
		<linearGradient x1="50%" y1="0%" x2="50%" y2="100%" id="linearGradient-6">
			<stop stop-color="#BECFE9" offset="0%"></stop>
			<stop stop-color="#E4EAF3" offset="100%"></stop>
		</linearGradient>
		<linearGradient x1="0%" y1="0%" x2="0%" y2="100%" id="linearGradient-7">
			<stop stop-color="#94AED5" offset="0%"></stop>
			<stop stop-color="#E4EBF4" offset="100%"></stop>
		</linearGradient>
		<linearGradient x1="50%" y1="0%" x2="50%" y2="100%" id="linearGradient-8">
			<stop stop-color="#BECFE9" offset="0%"></stop>
			<stop stop-color="#E3EAF3" offset="100%"></stop>
		</linearGradient>
	</defs>
	<g id="trakt.extension-nothing" stroke="none" stroke-width="1" fill="none" fill-rule="evenodd" transform="translate(-1363.000000, -253.000000)">
		<g id="main" transform="translate(1299.000000, 129.000000)">
			<g id="header">
				<g id="nothing_found" transform="translate(0.000000, 55.000000)">
					<g id="illustration" transform="translate(64.000000, 69.000000)">
						<path d="M198,109 L181.25,109 L181.25,108.973998 C178.861668,108.72415 177,106.704483 177,104.25 C177,101.706004 178.999931,99.629117 181.513339,99.505793 C181.769897,94.7650723 185.695259,91 190.5,91 C193.620423,91 196.369941,92.5880359 197.984462,95.0000169 C197.98964,95.0000056 197.994819,95 198,95 C201.865993,95 205,98.1340068 205,102 C205,105.865993 201.865993,109 198,109 Z" id="Combined-Shape" fill="#D2D9E5"></path>
						<g id="Group-6">
							<g id="Group-4">
								<g id="Group" transform="translate(63.000000, 0.000000)">
									<mask id="mask-2" fill="white">
										<use xlink:href="#path-1"></use>
									</mask>
									<use id="Rectangle-4" fill="#ECF0F6" xlink:href="#path-1"></use>
									<path d="M3.5,127.73913 L-7.26785714,127.73913 L-7.26785714,127.722173 C-8.80321366,127.559228 -10,126.242054 -10,124.641304 C-10,122.982177 -8.71433009,121.627685 -7.09856789,121.547256 C-6.93363772,118.455482 -4.41019092,116 -1.32142857,116 C0.684557887,116 2.45210499,117.035676 3.49001145,118.608707 C3.49334012,118.608699 3.49666964,118.608696 3.5,118.608696 C5.98528137,118.608696 8,120.652613 8,123.173913 C8,125.695213 5.98528137,127.73913 3.5,127.73913 Z" id="Combined-Shape" fill="#D5DFEE" mask="url(#mask-2)"></path>
									<path d="M74.75,133.826087 L66.9732143,133.826087 L66.9732143,133.81384 C65.8643457,133.696157 65,132.744865 65,131.588768 C65,130.390509 65.9285394,129.412265 67.0954787,129.354178 C67.214595,127.12123 69.0370843,125.347826 71.2678571,125.347826 C72.7166251,125.347826 73.9931869,126.095814 74.742786,127.231892 C74.7451901,127.231887 74.7475947,127.231884 74.75,127.231884 C76.5449254,127.231884 78,128.708047 78,130.528986 C78,132.349924 76.5449254,133.826087 74.75,133.826087 Z" id="Combined-Shape" fill="#D5DFEE" mask="url(#mask-2)"></path>
									<path d="M94.5,124 L88.5178571,124 L88.5178571,123.991333 C87.6648813,123.90805 87,123.234828 87,122.416667 C87,121.568668 87.7142611,120.876372 88.6119067,120.835264 C88.7035346,119.255024 90.1054495,118 91.8214286,118 C92.9358655,118 93.9178361,118.529345 94.4944508,119.333339 C94.4963001,119.333335 94.4981498,119.333333 94.5,119.333333 C95.8807119,119.333333 97,120.378002 97,121.666667 C97,122.955331 95.8807119,124 94.5,124 Z" id="Combined-Shape" fill="#D5DFEE" mask="url(#mask-2)"></path>
									<g id="Group-7" mask="url(#mask-2)" fill="#FFFFFF">
										<g transform="translate(6.000000, 7.000000)" id="Rectangle-7">
											<polygon points="17 18 19 20 17 22 15 20"></polygon>
											<polygon points="37 8 39 10 37 12 35 10"></polygon>
											<polygon points="37 38 39 40 37 42 35 40"></polygon>
											<polygon points="77 8 79 10 77 12 75 10"></polygon>
											<polygon points="6.5 8 8 9.5 6.5 11 5 9.5"></polygon>
											<polygon points="96 38 97 39 96 40 95 39"></polygon>
											<polygon points="56 18 57 19 56 20 55 19"></polygon>
											<polygon points="7 48 9 50 7 52 5 50"></polygon>
											<polygon points="57 68 59 70 57 72 55 70"></polygon>
											<polygon points="82 88 84 90 82 92 80 90"></polygon>
											<polygon points="102.5 8 104 9.5 102.5 11 101 9.5"></polygon>
											<polygon points="44.5 0 46 1.5 44.5 3 43 1.5"></polygon>
											<polygon points="14.5 39 16 40.5 14.5 42 13 40.5"></polygon>
											<polygon points="24.5 69 26 70.5 24.5 72 23 70.5"></polygon>
											<polygon points="42 58 45 61 42 64 39 61"></polygon>
											<polygon points="86 53 89 56 86 59 83 56"></polygon>
											<polygon points="2 78 4 80 2 82 0 80"></polygon>
										</g>
									</g>
									<circle id="Oval-2" fill="url(#radialGradient-3)" mask="url(#mask-2)" cx="74" cy="43" r="16"></circle>
									<circle id="Oval-2" fill="#A4BADB" mask="url(#mask-2)" cx="88" cy="38" r="6"></circle>
								</g>
								<polygon id="Rectangle-4" fill="url(#linearGradient-4)" transform="translate(42.500000, 108.000000) scale(-1, 1) translate(-42.500000, -108.000000) " points="22 0 63 40 63 216 22 176"></polygon>
								<path d="M24,49 L4.85714286,49 L4.85714286,48.9696644 C2.12762016,48.6781747 0,46.3218966 0,43.4583333 C0,40.4903381 2.2856354,38.0673032 5.15810153,37.9234251 C5.45131072,32.3925843 9.93743836,28 15.4285714,28 C18.9947696,28 22.1370755,29.8527086 23.9822426,32.6666864 C23.9881602,32.6666732 23.9940794,32.6666667 24,32.6666667 C28.418278,32.6666667 32,36.3230079 32,40.8333333 C32,45.3436588 28.418278,49 24,49 Z" id="Combined-Shape" fill="#FFFFFF"></path>
							</g>
							<g id="Group-5" transform="translate(63.000000, 124.000000)">
								<path d="M0,24.1660156 C20.9179687,20.2083333 40.5846354,18.2294922 59,18.2294922 C77.4153646,18.2294922 97.0820313,20.2083333 118,24.1660156 L118,52 L0,52 L0,24.1660156 Z" id="Rectangle-5" fill="url(#radialGradient-5)"></path>
								<g id="Group-3" transform="translate(20.000000, 9.000000)">
									<polygon id="Rectangle-6" fill="url(#linearGradient-6)" points="17 0 34 17 0 17"></polygon>
									<polygon id="Rectangle-6" fill="url(#linearGradient-7)" points="17 0 34 17 23.1872746 17"></polygon>
								</g>
								<g id="Group-3" transform="translate(33.000000, 0.000000)">
									<polygon id="Rectangle-6" fill="url(#linearGradient-8)" points="26 0 52 26 0 26"></polygon>
									<polygon id="Rectangle-6" fill="url(#linearGradient-7)" points="26 0 52 26 35.4628906 26"></polygon>
								</g>
							</g>
						</g>
						<path d="M200,85 L168.892857,85 L168.892857,84.9523298 C164.457383,84.4942745 161,80.7915517 161,76.2916667 C161,71.6276741 164.714158,67.8200479 169.381915,67.5939538 C169.85838,58.9026325 177.148337,52 186.071429,52 C191.866501,52 196.972748,54.9113992 199.971144,59.3333643 C199.98076,59.3333437 199.990379,59.3333333 200,59.3333333 C207.179702,59.3333333 213,65.0790124 213,72.1666667 C213,79.254321 207.179702,85 200,85 Z" id="Combined-Shape" fill="#FFFFFF"></path>
						<path d="M51.25,72 L37.4910714,72 L37.4910714,71.9783317 C35.529227,71.7701248 34,70.087069 34,68.0416667 C34,65.92167 35.6428004,64.1909308 37.7073855,64.0881608 C37.9181296,60.1375602 41.1425338,57 45.0892857,57 C47.6524906,57 49.911023,58.3233633 51.2372369,60.3333474 C51.2414902,60.333338 51.2457445,60.3333333 51.25,60.3333333 C54.4256373,60.3333333 57,62.9450056 57,66.1666667 C57,69.3883277 54.4256373,72 51.25,72 Z" id="Combined-Shape" fill="#FFFFFF"></path>
					</g>
				</g>
			</g>
		</g>
	</g>
</svg>